<?xml version="1.0" standalone="no"?>
<!DOCTYPE svg PUBLIC "-//W3C//DTD SVG 20010904//EN"
 "http://www.w3.org/TR/2001/REC-SVG-20010904/DTD/svg10.dtd">
<svg version="1.0" xmlns="http://www.w3.org/2000/svg"
 width="260.000000pt" height="260.000000pt" viewBox="0 0 260.000000 260.000000"
 preserveAspectRatio="xMidYMid meet">
<metadata>
Created by potrace 1.11, written by Peter Selinger 2001-2013
</metadata>
<g transform="translate(0.000000,260.000000) scale(0.100000,-0.100000)"
fill="#000000" stroke="none">
<path d="M333 1953 c-5 -87 -9 -160 -7 -161 1 -2 59 42 128 97 l125 101 76 0
75 0 0 -198 0 -199 -115 -72 c-63 -40 -115 -75 -115 -77 0 -2 185 -4 412 -4
l412 0 -122 78 -122 77 0 198 0 197 76 0 76 0 126 -100 c69 -55 127 -99 129
-97 2 2 -1 64 -7 138 -5 74 -10 144 -10 157 l0 22 -563 0 -564 0 -10 -157z"/>
<path d="M1125 1032 c50 -32 105 -67 123 -77 l32 -19 0 -181 0 -180 -122 -78
-122 -77 412 0 c227 0 412 2 412 4 0 2 -52 37 -115 77 -109 69 -115 74 -115
106 l0 33 225 0 c167 0 246 4 302 16 277 57 327 260 91 373 -122 57 -166 61
-715 61 l-497 0 89 -58z m856 -91 c46 -23 63 -87 34 -128 -23 -34 -76 -43
-237 -43 l-148 0 0 96 0 96 163 -4 c107 -3 171 -8 188 -17z"/>
</g>
</svg>
